<svg width="22" height="22" viewBox="0 0 22 22" fill="none" xmlns="http://www.w3.org/2000/svg">
<path d="M6.0223 20.5H15.9783C18.6003 20.5 19.6453 18.8945 19.7688 16.9375L20.2628 9.09048C20.3958 7.03848 18.7618 5.29998 16.7003 5.29998C16.1208 5.29998 15.5888 4.96748 15.3228 4.45448L14.6388 3.07698C14.2018 2.21248 13.0618 1.49998 12.0928 1.49998H9.9173C8.9388 1.49998 7.7988 2.21248 7.3618 3.07698L6.6778 4.45448C6.4118 4.96748 5.8798 5.29998 5.3003 5.29998C3.23881 5.29998 1.60481 7.03848 1.73781 9.09048L2.23181 16.9375C2.34581 18.8945 3.40031 20.5 6.0223 20.5Z" stroke="white" stroke-width="1.5" stroke-linecap="round" stroke-linejoin="round"/>
<path d="M9.5752 7.1992H12.4252" stroke="white" stroke-width="1.5" stroke-linecap="round" stroke-linejoin="round"/>
<path d="M11.0001 16.6996C12.7006 16.6996 14.0876 15.3126 14.0876 13.6121C14.0876 11.9116 12.7006 10.5246 11.0001 10.5246C9.2996 10.5246 7.9126 11.9116 7.9126 13.6121C7.9126 15.3126 9.2996 16.6996 11.0001 16.6996Z" stroke="white" stroke-width="1.5" stroke-linecap="round" stroke-linejoin="round"/>
</svg>
