<svg width="61" height="60" viewBox="0 0 61 60" fill="none" xmlns="http://www.w3.org/2000/svg">
<rect x="2.5" y="2" width="56" height="56" rx="28" fill="#047CFF"/>
<rect x="2.5" y="2" width="56" height="56" rx="28" stroke="white" stroke-width="4"/>
<path d="M30.62 30.78C30.55 30.77 30.46 30.77 30.38 30.78C28.62 30.72 27.22 29.28 27.22 27.51C27.22 25.7 28.68 24.23 30.5 24.23C32.31 24.23 33.78 25.7 33.78 27.51C33.77 29.28 32.38 30.72 30.62 30.78Z" stroke="white" stroke-width="1.5" stroke-linecap="round" stroke-linejoin="round"/>
<path d="M37.24 37.38C35.46 39.01 33.1 40 30.5 40C27.9 40 25.54 39.01 23.76 37.38C23.86 36.44 24.46 35.52 25.53 34.8C28.27 32.98 32.75 32.98 35.47 34.8C36.54 35.52 37.14 36.44 37.24 37.38Z" stroke="white" stroke-width="1.5" stroke-linecap="round" stroke-linejoin="round"/>
<path d="M30.5 40C36.0228 40 40.5 35.5228 40.5 30C40.5 24.4772 36.0228 20 30.5 20C24.9772 20 20.5 24.4772 20.5 30C20.5 35.5228 24.9772 40 30.5 40Z" stroke="white" stroke-width="1.5" stroke-linecap="round" stroke-linejoin="round"/>
</svg>
