<svg width="35" height="38" viewBox="0 0 35 38" fill="none" xmlns="http://www.w3.org/2000/svg">
<path fill-rule="evenodd" clip-rule="evenodd" d="M23.426 19.4617C22.5316 19.7697 21.5552 19.3555 21.2472 18.461L16.8582 5.71465C16.5759 4.8947 17.0646 3.89264 17.9591 3.58465L27.5003 0.299367C28.3202 0.0170384 29.3223 0.505778 29.6046 1.32572L33.9935 14.0721C34.3015 14.9666 33.7871 15.8941 32.9672 16.1764L23.426 19.4617ZM5.29281 18.6184C4.47287 18.9007 3.4708 18.412 3.18848 17.592L0.98118 11.1816C0.698851 10.3616 1.18759 9.35955 2.00753 9.07722L11.5487 5.79194C12.4432 5.48395 13.4452 5.97269 13.7275 6.79263L15.9348 13.2031C16.2172 14.023 15.7284 15.0251 14.834 15.3331L5.29281 18.6184ZM9.75903 36.6743C10.0414 37.4942 11.0434 37.983 11.8634 37.7006L21.4045 34.4154C22.299 34.1074 22.7877 33.1053 22.5054 32.2854L18.1165 19.539C17.8085 18.6445 16.8321 18.2303 15.9376 18.5383L6.39646 21.8236C5.57652 22.1059 5.06211 23.0334 5.37011 23.9279L9.75903 36.6743Z" fill="white"/>
</svg>
