<svg width="74" height="74" viewBox="0 0 74 74" fill="none" xmlns="http://www.w3.org/2000/svg">
<rect width="74" height="74" rx="37" fill="#047CFF"/>
<mask id="mask0_64_16" style="mask-type:luminance" maskUnits="userSpaceOnUse" x="0" y="0" width="74" height="74">
<rect width="74" height="74" rx="37" fill="white"/>
<rect width="74" height="74" rx="37" stroke="white"/>
</mask>
<g mask="url(#mask0_64_16)">
<path fill-rule="evenodd" clip-rule="evenodd" d="M42.426 37.4617C41.5316 37.7697 40.5552 37.3555 40.2472 36.461L35.8582 23.7146C35.5759 22.8947 36.0646 21.8926 36.9591 21.5846L46.5003 18.2994C47.3202 18.017 48.3223 18.5058 48.6046 19.3257L52.9935 32.0721C53.3015 32.9666 52.7871 33.8941 51.9672 34.1764L42.426 37.4617ZM24.2928 36.6184C23.4729 36.9007 22.4708 36.412 22.1885 35.592L19.9812 29.1816C19.6989 28.3616 20.1876 27.3596 21.0075 27.0772L30.5487 23.7919C31.4432 23.4839 32.4452 23.9727 32.7275 24.7926L34.9348 31.2031C35.2172 32.023 34.7284 33.0251 33.834 33.3331L24.2928 36.6184ZM28.759 54.6743C29.0414 55.4942 30.0434 55.983 30.8634 55.7006L40.4045 52.4154C41.299 52.1074 41.7877 51.1053 41.5054 50.2854L37.1165 37.539C36.8085 36.6445 35.8321 36.2303 34.9376 36.5383L25.3965 39.8236C24.5765 40.1059 24.0621 41.0334 24.3701 41.9279L28.759 54.6743Z" fill="white"/>
</g>
</svg>
