<svg width="25" height="24" viewBox="0 0 25 24" fill="none" xmlns="http://www.w3.org/2000/svg">
<path d="M17.3 9C17.3 12.87 13.94 16 9.80005 16L8.87006 17.12L8.32005 17.78C7.85005 18.34 6.95005 18.22 6.64005 17.55L5.30005 14.6C3.48005 13.32 2.30005 11.29 2.30005 9C2.30005 5.13 5.66005 2 9.80005 2C12.82 2 15.4301 3.67001 16.6001 6.07001C17.0501 6.96001 17.3 7.95 17.3 9Z" stroke="#B3B3B3" stroke-width="1.5" stroke-linecap="round" stroke-linejoin="round"/>
<path d="M22.3 12.86C22.3 15.15 21.12 17.18 19.3 18.46L17.9601 21.41C17.6501 22.08 16.75 22.21 16.28 21.64L14.8 19.86C12.38 19.86 10.2201 18.79 8.87006 17.12L9.80005 16C13.94 16 17.3 12.87 17.3 9C17.3 7.95 17.0501 6.96001 16.6001 6.07001C19.8701 6.82001 22.3 9.57999 22.3 12.86Z" stroke="#B3B3B3" stroke-width="1.5" stroke-linecap="round" stroke-linejoin="round"/>
<path d="M7.30005 9H12.3" stroke="#B3B3B3" stroke-width="1.5" stroke-linecap="round" stroke-linejoin="round"/>
</svg>
