<svg width="28" height="28" viewBox="0 0 28 28" fill="none" xmlns="http://www.w3.org/2000/svg">
<path d="M21 8.35301C20.93 8.34135 20.8483 8.34135 20.7783 8.35301C19.1683 8.29468 17.885 6.97634 17.885 5.34301C17.885 3.67468 19.2267 2.33301 20.895 2.33301C22.5633 2.33301 23.905 3.68634 23.905 5.34301C23.8933 6.97634 22.61 8.29468 21 8.35301Z" stroke="#047CFF" stroke-width="1.5" stroke-linecap="round" stroke-linejoin="round"/>
<path d="M19.7986 16.8463C21.3969 17.1147 23.1586 16.8347 24.3952 16.0063C26.0402 14.9097 26.0402 13.113 24.3952 12.0163C23.1469 11.188 21.3619 10.908 19.7635 11.188" stroke="#047CFF" stroke-width="1.5" stroke-linecap="round" stroke-linejoin="round"/>
<path d="M6.965 8.35309C7.035 8.34143 7.11666 8.34143 7.18666 8.35309C8.79666 8.29476 10.08 6.97642 10.08 5.34309C10.08 3.67476 8.73833 2.33309 7.07 2.33309C5.40167 2.33309 4.06 3.68642 4.06 5.34309C4.07166 6.97642 5.355 8.29476 6.965 8.35309Z" stroke="#047CFF" stroke-width="1.5" stroke-linecap="round" stroke-linejoin="round"/>
<path d="M8.1666 16.8463C6.56826 17.1147 4.8066 16.8347 3.56993 16.0063C1.92493 14.9097 1.92493 13.113 3.56993 12.0163C4.81827 11.188 6.60326 10.908 8.2016 11.188" stroke="#047CFF" stroke-width="1.5" stroke-linecap="round" stroke-linejoin="round"/>
<path d="M14.0001 17.0678C13.9301 17.0562 13.8484 17.0562 13.7784 17.0678C12.1684 17.0095 10.8851 15.6911 10.8851 14.0578C10.8851 12.3895 12.2267 11.0478 13.8951 11.0478C15.5634 11.0478 16.9051 12.4011 16.9051 14.0578C16.8934 15.6911 15.6101 17.0212 14.0001 17.0678Z" stroke="#047CFF" stroke-width="1.5" stroke-linecap="round" stroke-linejoin="round"/>
<path d="M10.6048 20.7429C8.95984 21.8396 8.95984 23.6363 10.6048 24.7329C12.4715 25.9813 15.5282 25.9813 17.3948 24.7329C19.0398 23.6363 19.0398 21.8396 17.3948 20.7429C15.5398 19.5063 12.4715 19.5063 10.6048 20.7429Z" stroke="#047CFF" stroke-width="1.5" stroke-linecap="round" stroke-linejoin="round"/>
</svg>
