<svg width="28" height="28" viewBox="0 0 28 28" fill="none" xmlns="http://www.w3.org/2000/svg">
<path d="M14.1866 12.6814C14.0699 12.6697 13.9299 12.6697 13.8016 12.6814C11.0249 12.5881 8.81989 10.3131 8.81989 7.51308C8.81989 4.65474 11.1299 2.33308 13.9999 2.33308C16.8582 2.33308 19.1799 4.65474 19.1799 7.51308C19.1682 10.3131 16.9632 12.5881 14.1866 12.6814Z" stroke="#047CFF" stroke-width="1.5" stroke-linecap="round" stroke-linejoin="round"/>
<path d="M8.35316 16.9869C5.52982 18.8769 5.52982 21.9569 8.35316 23.8352C11.5615 25.9819 16.8232 25.9819 20.0315 23.8352C22.8548 21.9452 22.8548 18.8652 20.0315 16.9869C16.8348 14.8519 11.5732 14.8519 8.35316 16.9869Z" stroke="#047CFF" stroke-width="1.5" stroke-linecap="round" stroke-linejoin="round"/>
</svg>
