<svg width="28" height="28" viewBox="0 0 28 28" fill="none" xmlns="http://www.w3.org/2000/svg">
<path d="M12.2383 2.60133L6.4166 4.79466C5.07494 5.29633 3.97827 6.88299 3.97827 8.30633V16.9747C3.97827 18.3513 4.88827 20.1597 5.9966 20.988L11.0133 24.733C12.6583 25.9697 15.3649 25.9697 17.0099 24.733L22.0266 20.988C23.1349 20.1597 24.0449 18.3513 24.0449 16.9747V8.30633C24.0449 6.87133 22.9483 5.28466 21.6066 4.78299L15.7849 2.60133C14.7933 2.23966 13.2066 2.23966 12.2383 2.60133Z" stroke="#047CFF" stroke-width="1.5" stroke-linecap="round" stroke-linejoin="round"/>
<path d="M14 12.2503C13.9344 12.2437 13.8555 12.2437 13.7833 12.2503C12.2198 12.1977 10.9783 10.9153 10.9783 9.33695C10.9783 7.72571 12.2789 6.41699 13.8949 6.41699C15.5044 6.41699 16.8116 7.72571 16.8116 9.33695C16.805 10.9153 15.5635 12.1977 14 12.2503Z" stroke="#047CFF" stroke-width="1.2" stroke-linecap="round" stroke-linejoin="round"/>
<path d="M10.5752 15.75C8.91933 16.846 8.91933 18.632 10.5752 19.7212C12.457 20.966 15.543 20.966 17.4247 19.7212C19.0806 18.6252 19.0806 16.8392 17.4247 15.75C15.5498 14.512 12.4638 14.512 10.5752 15.75Z" stroke="#047CFF" stroke-width="1.2" stroke-linecap="round" stroke-linejoin="round"/>
</svg>
